<svg width="14" height="12" viewBox="0 0 14 12" fill="none" xmlns="http://www.w3.org/2000/svg">
  <g transform="translate(14, 0) scale(-1, 1)">
    <path d="M6.66667 7.66667H5.33334C4.23975 7.66632 3.16687 7.96487 2.23064 8.53003C1.29442 9.0952 0.530462 9.90549 0.0213371 10.8733C0.00693023 10.6937 -0.000186773 10.5135 3.72456e-06 10.3333C3.72456e-06 6.65133 2.98467 3.66667 6.66667 3.66667V0L13.6667 5.66667L6.66667 11.3333V7.66667ZM5.33334 6.33333H8V8.53867L11.5473 5.66667L8 2.79467V5H6.66667C5.9001 4.99913 5.14241 5.16394 4.44545 5.48313C3.7485 5.80232 3.12876 6.26836 2.62867 6.84933C3.48956 6.5081 4.40729 6.33302 5.33334 6.33333Z" fill="currentColor"/>
  </g>
</svg>